<svg xmlns="http://www.w3.org/2000/svg" xmlns:xlink="http://www.w3.org/1999/xlink" version="1.1" id="Capa_1" x="0px" y="0px" viewBox="0 0 512 512" style="enable-background:new 0 0 512 512;" xml:space="preserve" width="100%" height="100%"  preserveAspectRatio="xMidYMid meet"><rect id="svgEditorBackground" x="0" y="0" width="512" height="512" style="fill:none;stroke:none;"/>









<g>
	<path style="fill:#66A060;" d="M282.149,358.717c0,0-1.132-9.729-11.539-9.729c-10.408,0-17.534,1.357-17.534,7.127   s20.25,5.77,27.943,8.032c7.693,2.262,14.48,8.145,11.086,18.553c-3.394,10.408-13.802,11.539-29.866,11.539   s-19.685-13.35-19.685-18.553h9.05c0,0-1.132,8.145,9.502,9.502c10.634,1.357,20.802,2.121,22.173-6.108   c1.81-10.861-34.391-5.43-37.559-16.064c-2.676-8.985-1.132-20.815,16.969-22.626c18.101-1.811,28.056,6.181,28.056,18.101   L282.149,358.717z"/>
	<path style="fill:#66A060;" d="M194.723,401.131l20.008,11.551c10.053,5.804,22.619-1.451,22.619-13.059v-20.242v-37.253h-8.155   v55.227c0,6.339-6.862,10.302-12.353,7.131l-13.965-8.062v-58.94l51.043-29.467l51.043,29.467v58.94l-51.043,29.467l-14.704-8.489   l-9.602,3.872l24.305,14.033l59.198-34.179v-68.351L253.92,298.6l-59.198,34.179v68.352H194.723z"/>
</g>
<g>
</g>
<g>
</g>
<g>
</g>
<g>
</g>
<g>
</g>
<g>
</g>
<g>
</g>
<g>
</g>
<g>
</g>
<g>
</g>
<g>
</g>
<g>
</g>
<g>
</g>
<g>
</g>
<g>
</g>
</svg>