<svg xmlns="http://www.w3.org/2000/svg" xmlns:xlink="http://www.w3.org/1999/xlink" version="1.1" id="Capa_1" x="0px" y="0px" viewBox="0 0 512 512" style="enable-background:new 0 0 512 512;" xml:space="preserve" width="100%" height="100%" preserveAspectRatio="xMidYMid meet"  ><rect id="svgEditorBackground" x="0" y="0" width="512" height="512" style="fill:none;stroke:none;"/>









<g transform="matrix(3.30959 0 0 3.30959 -621.495 -886.918)">
	<path style="fill:#66A060;" d="M293.8284812242126,337.2021661659244c0,0,-1.1320000000000618,-9.728999999999985,-11.538999999999987,-9.728999999999985c-10.408000000000015,0,-17.533999999999992,1.3570000000000277,-17.533999999999992,7.1270000000000095s20.25,5.769999999999982,27.942999999999984,8.032000000000039c7.692999999999984,2.2619999999999436,14.480000000000018,8.144999999999925,11.086000000000013,18.55299999999994c-3.3940000000000055,10.408000000000015,-13.802000000000021,11.538999999999987,-29.865999999999985,11.538999999999987s-19.685000000000116,-13.350000000000023,-19.685000000000116,-18.552999999999997h9.050000000000125c0,0,-1.1320000000000618,8.144999999999982,9.501999999999953,9.50200000000001c10.634000000000015,1.3570000000000277,20.80200000000002,2.120999999999981,22.173000000000002,-6.108000000000004c1.8100000000000591,-10.86099999999999,-34.39099999999996,-5.430000000000007,-37.55899999999997,-16.06400000000002c-2.6760000000000446,-8.985000000000014,-1.1320000000000618,-20.814999999999998,16.96900000000005,-22.625999999999976c18.101,-1.8109999999999786,28.055999999999926,6.180999999999983,28.055999999999926,18.101l-8.596000000000004,0.2259999999999991Z"/>
	<path style="fill:#66A060;" d="M206.40248122421255,379.61616616592437l20.00800000000001,11.550999999999988c10.052999999999997,5.803999999999974,22.619,-1.4510000000000218,22.619,-13.059000000000026v-20.24200000000002v-37.252999999999986h-8.155000000000001v55.226999999999975c0,6.338999999999999,-6.861999999999995,10.302000000000021,-12.353000000000009,7.131000000000029l-13.965000000000003,-8.062000000000069v-58.94l51.043000000000035,-29.466999999999985l51.043000000000006,29.466999999999985v58.94l-51.043000000000006,29.466999999999985l-14.704000000000036,-8.488999999999976l-9.601999999999975,3.872000000000014l24.305000000000035,14.033000000000015l59.19799999999998,-34.178999999999974v-68.351l-59.197,-34.17699999999991l-59.198000000000064,34.178999999999974v68.35199999999998h0.0010000000000331966Z"/>
</g>
<g>
</g>
<g>
</g>
<g>
</g>
<g>
</g>
<g>
</g>
<g>
</g>
<g>
</g>
<g>
</g>
<g>
</g>
<g>
</g>
<g>
</g>
<g>
</g>
<g>
</g>
<g>
</g>
<g>
</g>
</svg>